<?xml version="1.0" encoding="utf-8"?>
<!-- Generator: Adobe Illustrator 16.0.0, SVG Export Plug-In . SVG Version: 6.00 Build 0)  -->
<!DOCTYPE svg PUBLIC "-//W3C//DTD SVG 1.1//EN" "http://www.w3.org/Graphics/SVG/1.1/DTD/svg11.dtd">
<svg version="1.1"
	 id="svg2" xmlns:dc="http://purl.org/dc/elements/1.1/" xmlns:cc="http://creativecommons.org/ns#" xmlns:rdf="http://www.w3.org/1999/02/22-rdf-syntax-ns#" xmlns:svg="http://www.w3.org/2000/svg"
	 xmlns="http://www.w3.org/2000/svg" xmlns:xlink="http://www.w3.org/1999/xlink" x="0px" y="0px" width="415.746px"
	 height="151.187px" viewBox="0 0 415.746 151.187" enable-background="new 0 0 415.746 151.187" xml:space="preserve">
<path id="path14" fill="#155196" d="M133.281,97.154h5.738v26.084h-5.738V97.154"/>
<path id="path16" fill="#155196" d="M142.6,104.351h4.93v2.631h0.11c1.316-2.119,3.58-3.141,5.772-3.141
	c5.512,0,6.903,3.104,6.903,7.78v11.616h-5.187v-10.666c0-3.106-0.916-4.64-3.326-4.64c-2.81,0-4.017,1.57-4.017,5.405v9.9H142.6
	V104.351"/>
<path id="path18" fill="#155196" d="M176.57,119.767h-0.071c-1.136,1.972-3.397,2.924-5.662,2.924c-5.663,0-8.073-4.313-8.073-9.5
	c0-4.895,2.811-9.35,8.106-9.35c2.486,0,4.387,0.838,5.629,3.031h0.071v-2.521h4.935v17.682c0,3.104-1.096,8.367-9.791,8.367
	c-3.729,0-8.074-1.756-8.365-6.067h5.184c0.478,1.938,2.049,2.595,3.875,2.595c2.886,0,4.163-1.973,4.163-4.676V119.767z
	 M176.57,113.557c0-3.069-1.061-5.809-4.42-5.809c-2.923,0-4.199,2.559-4.199,5.37c0,2.703,1.022,5.662,4.199,5.662
	C175.11,118.781,176.57,116.257,176.57,113.557"/>
<path id="path20" fill="#155196" d="M189.03,115.056c0.146,3.286,1.75,4.783,4.636,4.783c2.083,0,3.762-1.279,4.128-2.447h4.533
	c-1.464,4.457-4.57,6.358-8.843,6.358c-5.954,0-9.643-4.094-9.643-9.937c0-5.662,3.908-9.973,9.643-9.973
	c6.064,0,9.207,5.041,9.207,9.57v1.645H189.03z M197.504,111.767c-0.514-2.631-1.646-4.019-4.167-4.019
	c-3.288,0-4.237,2.559-4.308,4.019H197.504"/>
<path id="path22" fill="#155196" d="M204.808,104.351h4.93v2.631h0.107c1.319-2.119,3.584-3.141,5.776-3.141
	c5.516,0,6.901,3.104,6.901,7.78v11.616h-5.186v-10.666c0-3.106-0.913-4.64-3.325-4.64c-2.811,0-4.018,1.57-4.018,5.405v9.9h-5.187
	V104.351"/>
<path id="path24" fill="#155196" d="M225.702,97.154h5.187v4.275h-5.187V97.154z M225.702,104.351h5.187v18.887h-5.187V104.351"/>
<path id="path26" fill="#155196" d="M234.067,104.351h5.188v10.667c0,3.104,0.913,4.639,3.322,4.639
	c2.814,0,4.021-1.571,4.021-5.405v-9.9h5.188v18.887h-4.935v-2.631h-0.107c-1.317,2.119-3.58,3.144-5.772,3.144
	c-5.516,0-6.905-3.106-6.905-7.782V104.351"/>
<path id="path28" fill="#155196" d="M254.962,104.351h4.896v2.559h0.073c1.354-1.938,3.324-3.068,5.771-3.068
	c2.375,0,4.496,0.875,5.519,3.141c1.095-1.645,3.068-3.141,5.698-3.141c4.017,0,6.903,1.863,6.903,6.757v12.64h-5.188v-10.703
	c0-2.521-0.217-4.603-3.177-4.603c-2.924,0-3.473,2.41-3.473,4.785v10.521h-5.185v-10.594c0-2.192,0.146-4.712-3.144-4.712
	c-1.022,0-3.508,0.657-3.508,4.347v10.959h-5.185L254.962,104.351"/>
<path id="path30" fill="#00ADEF" d="M296.169,105.796h12.007v1.949h-9.693v5.527h9.032v1.947h-9.032v6.015h9.764v1.95h-12.077
	V105.796"/>
<path id="path32" fill="#00ADEF" d="M321.349,123.185h-2.071v-1.705h-0.05c-0.68,1.389-2.286,1.996-4.016,1.996
	c-3.874,0-5.796-3.066-5.796-6.623c0-3.555,1.898-6.551,5.749-6.551c1.289,0,3.138,0.487,4.063,1.973h0.05v-6.479h2.071V123.185z
	 M315.504,121.65c2.775,0,3.773-2.387,3.773-4.748c0-2.484-1.046-4.772-3.895-4.772c-2.826,0-3.776,2.411-3.776,4.868
	C311.607,119.363,312.825,121.65,315.504,121.65"/>
<path id="path34" fill="#00ADEF" d="M334.354,123.185h-1.948v-1.998h-0.05c-0.877,1.559-2.288,2.289-4.091,2.289
	c-3.314,0-4.337-1.898-4.337-4.602v-8.279h2.073v8.521c0,1.536,0.974,2.533,2.555,2.533c2.51,0,3.727-1.68,3.727-3.943v-7.111h2.07
	L334.354,123.185"/>
<path id="path36" fill="#00ADEF" d="M345.41,114.636c-0.317-1.582-1.41-2.507-3.117-2.507c-2.999,0-3.923,2.362-3.923,4.919
	c0,2.314,1.048,4.602,3.681,4.602c1.997,0,3.237-1.168,3.505-3.067h2.07c-0.461,3.067-2.388,4.894-5.553,4.894
	c-3.85,0-5.895-2.678-5.895-6.428c0-3.775,1.949-6.746,5.942-6.746c2.852,0,5.189,1.34,5.48,4.334H345.41"/>
<path id="path38" fill="#00ADEF" d="M360.482,123.185c-0.361,0.17-0.826,0.291-1.481,0.291c-1.075,0-1.754-0.584-1.754-1.946
	c-1.146,1.339-2.68,1.946-4.435,1.946c-2.288,0-4.162-1.021-4.162-3.529c0-2.85,2.117-3.459,4.261-3.873
	c2.291-0.438,4.212-0.293,4.212-1.852c0-1.8-1.461-2.093-2.775-2.093c-1.752,0-3.044,0.536-3.141,2.385h-2.071
	c0.122-3.117,2.535-4.212,5.334-4.212c2.265,0,4.725,0.51,4.725,3.459v6.479c0,0.972,0,1.41,0.657,1.41
	c0.172,0,0.366-0.022,0.631-0.12V123.185z M357.122,116.708c-0.803,0.535-2.362,0.584-3.752,0.827
	c-1.361,0.245-2.53,0.731-2.53,2.265c0,1.363,1.169,1.85,2.435,1.85c2.729,0,3.848-1.703,3.848-2.848V116.708"/>
<path id="path40" fill="#00ADEF" d="M364.672,110.595h2.511v1.827h-2.511v7.817c0,0.947,0.268,1.119,1.559,1.119h0.952v1.826h-1.588
	c-2.142,0-2.992-0.439-2.992-2.753v-8.01h-2.143v-1.827h2.143v-3.775h2.069V110.595"/>
<path id="path42" fill="#00ADEF" d="M371.052,108.332h-2.07v-2.535h2.07V108.332z M368.982,110.595h2.07v12.59h-2.07V110.595"/>
<path id="path44" fill="#00ADEF" d="M379.089,110.302c3.993,0,6.109,2.898,6.109,6.6c0,3.678-2.116,6.574-6.109,6.574
	c-3.994,0-6.113-2.896-6.113-6.574C372.976,113.201,375.095,110.302,379.089,110.302z M379.089,121.65
	c2.168,0,3.919-1.703,3.919-4.748c0-3.068-1.751-4.772-3.919-4.772c-2.169,0-3.921,1.704-3.921,4.772
	C375.168,119.947,376.92,121.65,379.089,121.65"/>
<path id="path46" fill="#00ADEF" d="M387.026,110.595h1.95v1.996h0.05c0.876-1.559,2.288-2.289,4.09-2.289
	c3.313,0,4.334,1.9,4.334,4.604v8.279h-2.066v-8.523c0-1.535-0.976-2.532-2.558-2.532c-2.508,0-3.729,1.681-3.729,3.944v7.111
	h-2.071V110.595"/>
<path id="path48" fill="#00ADEF" d="M118.313,123.156H4.913V9.756h113.399V123.156"/>
</svg>
